#!OML:ASF F:\VICON\USERDATA\INSTALL\rory3\rory3.ASF
:FULLY-SPECIFIED
:DEGREES
54
root 2.71388 16.2637 -29.8658 145.211 -34.9662 17.3313
lowerback -4.68546 11.4741 3.19304
upperback -19.7862 17.7121 -6.31719
thorax -16.9357 8.08806 -10.4008
lowerneck -9.45603 -5.30237 59.8256
upperneck -8.96849 -14.8562 -24.7744
head -7.50333 -9.13898 -15.9571
rclavicle -2.16278e-013 -1.27222e-014
rhumerus 27.0089 -16.5295 -18.824
rradius 48.1772
rwrist 13.0936
rhand -33.0929 103.373
rfingers 7.12502
rthumb 173.696 -46.7408
lclavicle -2.16278e-013 -1.27222e-014
lhumerus 109.881 -0.119488 44.6953
lradius 21.3678
lwrist 5.63578
lhand -49.1969 -81.3671
lfingers 7.12502
lthumb -21.8181 -52.577
rfemur -77.7827 -43.0037 -47.2493
rtibia -6.99722e-014
rfoot -1.34599 -49.3678
rtoes 31.7517
lfemur -23.4547 4.76977 -20.0716
ltibia 95.1611
lfoot -6.5048 9.55831
ltoes -9.34661
55
root 2.66253 16.3585 -29.6002 146.017 -36.3671 17.4441
lowerback -4.12236 11.3015 4.33603
upperback -19.9089 17.4795 -6.74945
thorax -17.0119 7.73079 -11.5743
lowerneck -7.49617 -5.70348 60.2042
upperneck -10.8079 -14.2093 -24.7851
head -8.20212 -8.95175 -16.0839
rclavicle -6.36111e-015 1.04958e-013
rhumerus 27.5325 -15.7007 -17.884
rradius 47.2291
rwrist 12.3256
rhand -31.9814 103.331
rfingers 7.12502
rthumb 174.769 -46.7536
lclavicle -6.36111e-015 1.04958e-013
lhumerus 109.39 -0.000365869 43.569
lradius 21.6707
lwrist 6.49473
lhand -49.1104 -85.519
lfingers 7.12502
lthumb -21.7351 -56.7192
rfemur -75.6808 -43.2381 -48.1507
rtibia -3.81667e-014
rfoot -4.05657 -51.9104
rtoes 29.4227
lfemur -23.0692 5.71215 -17.8003
ltibia 96.2339
lfoot -7.34764 11.4482
ltoes -11.4096
56
root 2.61003 16.4566 -29.3178 146.945 -37.8028 17.4416
lowerback -3.61992 11.1094 5.36142
upperback -20.0383 17.2308 -7.1838
thorax -17.1249 7.37699 -12.7069
lowerneck -5.76479 -6.18756 57.6546
upperneck -11.9758 -13.1935 -22.3841
head -8.12536 -8.39943 -14.8371
rclavicle 9.54166e-015 -9.54166e-015
rhumerus 28.4932 -15.4019 -17.6502
rradius 45.8932
rwrist 12.1249
rhand -30.7475 103.588
rfingers 7.12502
rthumb 175.961 -46.4707
lclavicle 9.54166e-015 -9.54166e-015
lhumerus 107.628 2.98033 39.0954
lradius 23.7896
lwrist 11.8937
lhand -48.7817 -86.8394
lfingers 7.12502
lthumb -21.4193 -58.0034
rfemur -73.4453 -43.3899 -49.0305
rtibia 2.54444e-014
rfoot -0.869744 -53.9785
rtoes 25.8912
lfemur -22.6718 6.33734 -15.7658
ltibia 96.5926
lfoot -8.58318 13.1907
ltoes -9.00378
57
root 2.55886 16.5489 -29.0396 147.554 -39.222 17.827
lowerback -3.1338 10.8852 6.75102
upperback -20.1359 16.9619 -7.55982
thorax -17.1436 6.96275 -13.9536
lowerneck -3.86881 -6.68282 57.5241
upperneck -13.8844 -12.7206 -22.2568
head -8.89909 -8.30822 -14.8395
rclavicle -2.54444e-013 -6.36111e-014
rhumerus 29.7688 -15.6755 -18.1977
rradius 44.3507
rwrist 12.4552
rhand -29.5165 103.381
rfingers 7.12502
rthumb 177.149 -46.658
lclavicle -2.54444e-013 -6.36111e-014
lhumerus 107.028 3.6766 37.4912
lradius 24.1177
lwrist 13.6663
lhand -39.016 -87.0494
lfingers 7.12502
lthumb -12.0191 -57.4146
rfemur -70.9018 -43.3505 -49.694
rtibia -4.77083e-014
rfoot -0.192231 -55.7885
rtoes 18.9053
lfemur -22.2418 6.80901 -13.4139
ltibia 96.1935
lfoot -9.87671 14.7111
ltoes -5.31284
